# xmcd
#
# Track frame offsets:
#	150
#	20711
#	36863
#	50767
#	66691
#	82332
#	100165
#	118482
#	132490
#	145626
#	162467
#	179214
#	195589
#	210556
#	234545
#	251645
#	271288
#
# Disc length: 3857 seconds
#
# Revision: 0
# Processed by: cddbd v1.5.2PL0 Copyright (c) Steve Scherf et al.
# Submitted via: EasyCDDAExtractor 2010.6.0.0
#
DISCID=150f0f11
DTITLE=Emmylou Harris - Songbird:  Rare Tracks and Forgotten Gems - Disc # 4
DYEAR=1900
DGENRE=Country
TTITLE0=Beyond The Blue
TTITLE1=First In Line
TTITLE2=Highway Of Heartaches
TTITLE3=Alone And Forsaken
TTITLE4=Child Of Mine
TTITLE5=Heaven Ain't Ready For You
TTITLE6=Wish You Were Back In Missouri
TTITLE7=Mama's Hungry Eyes
TTITLE8=Here We Are
TTITLE9=Waltz Across Texas Tonight
TTITLE10=Showin' On Raton
TTITLE11=Gone
TTITLE12=Don't Let Your Love Die
TTITLE13=The Pearl
TTITLE14=Wildwood Flower
TTITLE15=Love And Happiness
TTITLE16=When You're Gone, You're Gone
EXTD=
EXTT0=
EXTT1=
EXTT2=
EXTT3=
EXTT4=
EXTT5=
EXTT6=
EXTT7=
EXTT8=
EXTT9=
EXTT10=
EXTT11=
EXTT12=
EXTT13=
EXTT14=
EXTT15=
EXTT16=
PLAYORDER=
